<svg width="132" height="108" viewBox="0 0 132 108" fill="none" xmlns="http://www.w3.org/2000/svg">
<path d="M10.963 96.2358C11.1023 96.2358 11.2258 96.2897 11.3335 96.3973L12.3405 97.4898C11.7832 98.1802 11.096 98.709 10.279 99.0763C9.46833 99.4437 8.493 99.6273 7.353 99.6273C6.33333 99.6273 5.415 99.4532 4.598 99.1048C3.78733 98.7565 3.09383 98.272 2.5175 97.6513C1.94117 97.0307 1.49783 96.2897 1.1875 95.4283C0.8835 94.567 0.7315 93.6265 0.7315 92.6068C0.7315 91.5745 0.896167 90.6308 1.2255 89.7758C1.55483 88.9145 2.01717 88.1735 2.6125 87.5528C3.21417 86.9322 3.92983 86.4508 4.7595 86.1088C5.58917 85.7605 6.5075 85.5863 7.5145 85.5863C8.51517 85.5863 9.40183 85.751 10.1745 86.0803C10.9535 86.4097 11.6153 86.8403 12.16 87.3723L11.305 88.5598C11.2543 88.6358 11.1878 88.7023 11.1055 88.7593C11.0295 88.8163 10.9218 88.8448 10.7825 88.8448C10.6875 88.8448 10.5893 88.8195 10.488 88.7688C10.3867 88.7118 10.2758 88.6453 10.1555 88.5693C10.0352 88.487 9.89583 88.3983 9.7375 88.3033C9.57917 88.2083 9.3955 88.1228 9.1865 88.0468C8.9775 87.9645 8.73367 87.898 8.455 87.8473C8.18267 87.7903 7.866 87.7618 7.505 87.7618C6.89067 87.7618 6.327 87.8727 5.814 88.0943C5.30733 88.3097 4.87033 88.6263 4.503 89.0443C4.13567 89.456 3.85067 89.9627 3.648 90.5643C3.44533 91.1597 3.344 91.8405 3.344 92.6068C3.344 93.3795 3.45167 94.0667 3.667 94.6683C3.88867 95.27 4.18633 95.7767 4.56 96.1883C4.93367 96.6 5.37383 96.9167 5.8805 97.1383C6.38717 97.3537 6.93183 97.4613 7.5145 97.4613C7.86283 97.4613 8.17633 97.4423 8.455 97.4043C8.74 97.3663 8.99967 97.3062 9.234 97.2238C9.47467 97.1415 9.6995 97.037 9.9085 96.9103C10.1238 96.7773 10.336 96.6158 10.545 96.4258C10.6083 96.3688 10.6748 96.3245 10.7445 96.2928C10.8142 96.2548 10.887 96.2358 10.963 96.2358ZM27.4195 95.3143C26.7419 95.346 26.1719 95.4062 25.7095 95.4948C25.2472 95.5772 24.8767 95.6848 24.598 95.8178C24.3194 95.9508 24.1199 96.106 23.9995 96.2833C23.8792 96.4607 23.819 96.6538 23.819 96.8628C23.819 97.2745 23.9394 97.569 24.18 97.7463C24.427 97.9237 24.7469 98.0123 25.1395 98.0123C25.6209 98.0123 26.0357 97.9268 26.384 97.7558C26.7387 97.5785 27.0839 97.3125 27.4195 96.9578V95.3143ZM22.0425 91.0868C23.1635 90.0608 24.5125 89.5478 26.0895 89.5478C26.6595 89.5478 27.1694 89.6428 27.619 89.8328C28.0687 90.0165 28.4487 90.2762 28.759 90.6118C29.0694 90.9412 29.3037 91.337 29.462 91.7993C29.6267 92.2617 29.709 92.7683 29.709 93.3193V99.4753H28.645C28.4234 99.4753 28.2524 99.4437 28.132 99.3803C28.0117 99.3107 27.9167 99.1745 27.847 98.9718L27.638 98.2688C27.391 98.4905 27.1504 98.6868 26.916 98.8578C26.6817 99.0225 26.4379 99.1618 26.1845 99.2758C25.9312 99.3898 25.6589 99.4753 25.3675 99.5323C25.0825 99.5957 24.7659 99.6273 24.4175 99.6273C24.0059 99.6273 23.6259 99.5735 23.2775 99.4658C22.9292 99.3518 22.6284 99.184 22.375 98.9623C22.1217 98.7407 21.9254 98.4652 21.786 98.1358C21.6467 97.8065 21.577 97.4233 21.577 96.9863C21.577 96.7393 21.6182 96.4955 21.7005 96.2548C21.7829 96.0078 21.9159 95.7735 22.0995 95.5518C22.2895 95.3302 22.5334 95.1212 22.831 94.9248C23.1287 94.7285 23.4929 94.5575 23.9235 94.4118C24.3605 94.2662 24.8672 94.149 25.4435 94.0603C26.0199 93.9653 26.6785 93.9083 27.4195 93.8893V93.3193C27.4195 92.667 27.2802 92.1857 27.0015 91.8753C26.7229 91.5587 26.3207 91.4003 25.795 91.4003C25.415 91.4003 25.0984 91.4447 24.845 91.5333C24.598 91.622 24.3795 91.7233 24.1895 91.8373C23.9995 91.945 23.8254 92.0432 23.667 92.1318C23.515 92.2205 23.344 92.2648 23.154 92.2648C22.9894 92.2648 22.85 92.2237 22.736 92.1413C22.622 92.0527 22.5302 91.9513 22.4605 91.8373L22.0425 91.0868ZM43.5881 99.6273C42.7394 99.6273 42.0871 99.3898 41.6311 98.9148C41.1814 98.4335 40.9566 97.7717 40.9566 96.9293V91.4858H39.9591C39.8324 91.4858 39.7247 91.4447 39.6361 91.3623C39.5474 91.28 39.5031 91.1565 39.5031 90.9918V90.0608L41.0706 89.8043L41.5646 87.1443C41.5962 87.0177 41.6564 86.9195 41.7451 86.8498C41.8337 86.7802 41.9477 86.7453 42.0871 86.7453H43.3031V89.8138H45.9061V91.4858H43.3031V96.7678C43.3031 97.0718 43.3759 97.3093 43.5216 97.4803C43.6736 97.6513 43.8794 97.7368 44.1391 97.7368C44.2847 97.7368 44.4051 97.721 44.5001 97.6893C44.6014 97.6513 44.6869 97.6133 44.7566 97.5753C44.8326 97.5373 44.8991 97.5025 44.9561 97.4708C45.0131 97.4328 45.0701 97.4138 45.1271 97.4138C45.1967 97.4138 45.2537 97.4328 45.2981 97.4708C45.3424 97.5025 45.3899 97.5532 45.4406 97.6228L46.1436 98.7628C45.8016 99.0478 45.4089 99.2632 44.9656 99.4088C44.5222 99.5545 44.0631 99.6273 43.5881 99.6273ZM62.1637 93.4808C62.1637 93.1768 62.1194 92.8918 62.0307 92.6258C61.9484 92.3535 61.8217 92.116 61.6507 91.9133C61.4797 91.7107 61.2612 91.5523 60.9952 91.4383C60.7355 91.318 60.4315 91.2578 60.0832 91.2578C59.4055 91.2578 58.8704 91.451 58.4777 91.8373C58.0914 92.2237 57.8444 92.7715 57.7367 93.4808H62.1637ZM57.6892 94.8963C57.7272 95.3967 57.8159 95.8305 57.9552 96.1978C58.0945 96.5588 58.2782 96.8597 58.5062 97.1003C58.7342 97.3347 59.0034 97.512 59.3137 97.6323C59.6304 97.7463 59.9787 97.8033 60.3587 97.8033C60.7387 97.8033 61.0649 97.759 61.3372 97.6703C61.6159 97.5817 61.8565 97.4835 62.0592 97.3758C62.2682 97.2682 62.4487 97.17 62.6007 97.0813C62.759 96.9927 62.911 96.9483 63.0567 96.9483C63.253 96.9483 63.3987 97.0212 63.4937 97.1668L64.1682 98.0218C63.9085 98.3258 63.6172 98.5823 63.2942 98.7913C62.9712 98.994 62.6324 99.1587 62.2777 99.2853C61.9294 99.4057 61.5715 99.4912 61.2042 99.5418C60.8432 99.5925 60.4917 99.6178 60.1497 99.6178C59.472 99.6178 58.8419 99.507 58.2592 99.2853C57.6765 99.0573 57.1699 98.7248 56.7392 98.2878C56.3085 97.8445 55.9697 97.2998 55.7227 96.6538C55.4757 96.0015 55.3522 95.2478 55.3522 94.3928C55.3522 93.7278 55.4599 93.104 55.6752 92.5213C55.8905 91.9323 56.1977 91.4225 56.5967 90.9918C57.002 90.5548 57.4929 90.2097 58.0692 89.9563C58.6519 89.703 59.3074 89.5763 60.0357 89.5763C60.65 89.5763 61.2169 89.6745 61.7362 89.8708C62.2555 90.0672 62.702 90.3553 63.0757 90.7353C63.4494 91.109 63.7407 91.5713 63.9497 92.1223C64.165 92.667 64.2727 93.2908 64.2727 93.9938C64.2727 94.3485 64.2347 94.5892 64.1587 94.7158C64.0827 94.8362 63.937 94.8963 63.7217 94.8963H57.6892ZM76.7971 91.4193C77.1011 90.8367 77.4621 90.3807 77.8801 90.0513C78.2981 89.7157 78.7921 89.5478 79.3621 89.5478C79.8118 89.5478 80.1728 89.646 80.4451 89.8423L80.2931 91.5998C80.2614 91.7138 80.2139 91.7962 80.1506 91.8468C80.0936 91.8912 80.0144 91.9133 79.9131 91.9133C79.8181 91.9133 79.6756 91.8975 79.4856 91.8658C79.3019 91.8342 79.1214 91.8183 78.9441 91.8183C78.6844 91.8183 78.4533 91.8563 78.2506 91.9323C78.0479 92.0083 77.8643 92.1192 77.6996 92.2648C77.5413 92.4042 77.3988 92.5752 77.2721 92.7778C77.1518 92.9805 77.0378 93.2117 76.9301 93.4713V99.4753H74.5836V89.7283H75.9611C76.2018 89.7283 76.3696 89.7727 76.4646 89.8613C76.5596 89.9437 76.6229 90.0957 76.6546 90.3173L76.7971 91.4193ZM92.6535 89.7283V99.4753H90.2975V89.7283H92.6535ZM92.9765 86.8878C92.9765 87.0905 92.9353 87.2805 92.853 87.4578C92.7707 87.6352 92.6598 87.7903 92.5205 87.9233C92.3875 88.0563 92.2292 88.164 92.0455 88.2463C91.8618 88.3223 91.6655 88.3603 91.4565 88.3603C91.2538 88.3603 91.0607 88.3223 90.877 88.2463C90.6997 88.164 90.5445 88.0563 90.4115 87.9233C90.2785 87.7903 90.1708 87.6352 90.0885 87.4578C90.0125 87.2805 89.9745 87.0905 89.9745 86.8878C89.9745 86.6788 90.0125 86.4825 90.0885 86.2988C90.1708 86.1152 90.2785 85.9568 90.4115 85.8238C90.5445 85.6908 90.6997 85.5863 90.877 85.5103C91.0607 85.428 91.2538 85.3868 91.4565 85.3868C91.6655 85.3868 91.8618 85.428 92.0455 85.5103C92.2292 85.5863 92.3875 85.6908 92.5205 85.8238C92.6598 85.9568 92.7707 86.1152 92.853 86.2988C92.9353 86.4825 92.9765 86.6788 92.9765 86.8878ZM105.79 90.9253C105.987 90.729 106.192 90.5485 106.408 90.3838C106.629 90.2128 106.861 90.0703 107.101 89.9563C107.348 89.836 107.611 89.7442 107.89 89.6808C108.168 89.6112 108.472 89.5763 108.802 89.5763C109.334 89.5763 109.806 89.6682 110.217 89.8518C110.629 90.0292 110.971 90.2825 111.243 90.6118C111.522 90.9348 111.731 91.3243 111.87 91.7803C112.016 92.23 112.089 92.7272 112.089 93.2718V99.4753H109.742V93.2718C109.742 92.6765 109.606 92.2173 109.334 91.8943C109.061 91.565 108.647 91.4003 108.089 91.4003C107.684 91.4003 107.304 91.4922 106.949 91.6758C106.595 91.8595 106.259 92.1097 105.942 92.4263V99.4753H103.596V89.7283H105.03C105.334 89.7283 105.534 89.8708 105.629 90.1558L105.79 90.9253ZM126.433 94.3643C126.724 94.3643 126.977 94.3263 127.193 94.2503C127.408 94.168 127.585 94.0572 127.725 93.9178C127.87 93.7785 127.978 93.6107 128.048 93.4143C128.124 93.218 128.162 93.0027 128.162 92.7683C128.162 92.287 128.016 91.907 127.725 91.6283C127.44 91.3433 127.009 91.2008 126.433 91.2008C125.856 91.2008 125.423 91.3433 125.131 91.6283C124.846 91.907 124.704 92.287 124.704 92.7683C124.704 92.9963 124.739 93.2085 124.808 93.4048C124.884 93.6012 124.992 93.7722 125.131 93.9178C125.277 94.0572 125.457 94.168 125.673 94.2503C125.894 94.3263 126.148 94.3643 126.433 94.3643ZM129.083 99.9123C129.083 99.7223 129.026 99.5672 128.912 99.4468C128.798 99.3265 128.643 99.2347 128.447 99.1713C128.25 99.1017 128.019 99.051 127.753 99.0193C127.494 98.9877 127.215 98.9655 126.917 98.9528C126.626 98.9338 126.322 98.918 126.005 98.9053C125.695 98.8927 125.391 98.8673 125.093 98.8293C124.834 98.975 124.621 99.146 124.457 99.3423C124.298 99.5387 124.219 99.7667 124.219 100.026C124.219 100.197 124.26 100.356 124.343 100.501C124.431 100.653 124.568 100.783 124.751 100.891C124.941 100.999 125.185 101.081 125.483 101.138C125.78 101.201 126.145 101.233 126.575 101.233C127.012 101.233 127.389 101.198 127.706 101.128C128.022 101.065 128.282 100.973 128.485 100.853C128.694 100.739 128.846 100.6 128.941 100.435C129.036 100.277 129.083 100.102 129.083 99.9123ZM131.42 90.0608V90.9348C131.42 91.2135 131.252 91.3845 130.917 91.4478L130.043 91.6093C130.176 91.945 130.242 92.3123 130.242 92.7113C130.242 93.1927 130.144 93.6297 129.948 94.0223C129.758 94.4087 129.492 94.738 129.15 95.0103C128.808 95.2827 128.402 95.4948 127.934 95.6468C127.471 95.7925 126.971 95.8653 126.433 95.8653C126.243 95.8653 126.059 95.8558 125.882 95.8368C125.704 95.8178 125.53 95.7925 125.359 95.7608C125.055 95.9445 124.903 96.1503 124.903 96.3783C124.903 96.5747 124.992 96.7203 125.169 96.8153C125.353 96.904 125.594 96.9673 125.891 97.0053C126.189 97.0433 126.528 97.0687 126.908 97.0813C127.288 97.0877 127.677 97.1067 128.076 97.1383C128.475 97.17 128.865 97.227 129.245 97.3093C129.625 97.3853 129.964 97.5088 130.261 97.6798C130.559 97.8508 130.796 98.0852 130.974 98.3828C131.157 98.6742 131.249 99.051 131.249 99.5133C131.249 99.944 131.142 100.362 130.926 100.767C130.717 101.173 130.41 101.534 130.005 101.85C129.606 102.167 129.112 102.42 128.523 102.61C127.94 102.807 127.275 102.905 126.528 102.905C125.793 102.905 125.153 102.832 124.609 102.686C124.064 102.547 123.611 102.357 123.25 102.116C122.889 101.882 122.62 101.61 122.443 101.299C122.265 100.989 122.177 100.666 122.177 100.33C122.177 99.8743 122.313 99.4943 122.585 99.1903C122.864 98.88 123.244 98.633 123.725 98.4493C123.466 98.3163 123.26 98.139 123.108 97.9173C122.956 97.6957 122.88 97.4043 122.88 97.0433C122.88 96.8977 122.905 96.7488 122.956 96.5968C123.013 96.4385 123.092 96.2833 123.193 96.1313C123.301 95.9793 123.434 95.8368 123.592 95.7038C123.751 95.5645 123.937 95.441 124.153 95.3333C123.659 95.0673 123.269 94.7127 122.984 94.2693C122.706 93.826 122.566 93.3067 122.566 92.7113C122.566 92.23 122.661 91.7962 122.851 91.4098C123.048 91.0172 123.317 90.6847 123.659 90.4123C124.007 90.1337 124.416 89.9215 124.884 89.7758C125.359 89.6302 125.875 89.5573 126.433 89.5573C126.851 89.5573 127.243 89.6017 127.611 89.6903C127.978 89.7727 128.314 89.8962 128.618 90.0608H131.42Z" fill="white"/>
<path d="M131.137 76.8471H124.381V42.8621H131.137V76.8471Z" fill="white"/>
<path d="M117.095 76.8471H110.339V62.1322H96.5712V76.8471H89.8152V42.8621H96.5712V57.3722H110.339V42.8621H117.095V76.8471Z" fill="white"/>
<path d="M82.3753 49.2602C82.2047 49.6014 81.9999 49.8488 81.7611 50.0023C81.5393 50.1388 81.2578 50.207 80.9166 50.207C80.5924 50.207 80.2427 50.0876 79.8673 49.8488C79.492 49.6099 79.0484 49.354 78.5366 49.081C78.0418 48.791 77.4618 48.5266 76.7964 48.2877C76.131 48.0489 75.3633 47.9294 74.4932 47.9294C72.9577 47.9294 71.7976 48.3048 71.0128 49.0554C70.2451 49.8061 69.8612 50.7871 69.8612 51.9984C69.8612 52.7662 70.0659 53.4059 70.4754 53.9178C70.9019 54.4125 71.4564 54.8476 72.1388 55.2229C72.8383 55.5812 73.6231 55.9053 74.4932 56.1954C75.3803 56.4854 76.2846 56.801 77.2058 57.1422C78.1271 57.4664 79.0228 57.8588 79.8929 58.3194C80.7801 58.763 81.5649 59.326 82.2473 60.0084C82.9468 60.6909 83.5013 61.5268 83.9107 62.5164C84.3372 63.5059 84.5505 64.7087 84.5505 66.1247C84.5505 67.6602 84.2946 69.1018 83.7828 70.4496C83.288 71.7974 82.5544 72.9746 81.5819 73.9812C80.6095 74.9707 79.4152 75.7555 77.9992 76.3356C76.6002 76.9156 74.9965 77.2057 73.188 77.2057C72.1644 77.2057 71.1408 77.0948 70.1171 76.873C69.1105 76.6683 68.1381 76.3697 67.1997 75.9773C66.2614 75.5849 65.3742 75.1157 64.5382 74.5698C63.7023 74.0238 62.9687 73.4097 62.3374 72.7272L64.3335 69.5283C64.4871 69.2724 64.6918 69.0677 64.9477 68.9142C65.2207 68.7606 65.5107 68.6838 65.8178 68.6838C66.2273 68.6838 66.6452 68.8459 67.0718 69.1701C67.5153 69.4772 68.0272 69.8269 68.6072 70.2193C69.1873 70.5946 69.8612 70.9444 70.6289 71.2685C71.3967 71.5756 72.3094 71.7292 73.3672 71.7292C74.9026 71.7292 76.0969 71.3368 76.9499 70.552C77.803 69.7672 78.2295 68.6071 78.2295 67.0716C78.2295 66.2015 78.0162 65.4935 77.5897 64.9475C77.1803 64.4016 76.6343 63.9495 75.9519 63.5912C75.2695 63.2159 74.4847 62.9002 73.5975 62.6443C72.7274 62.3714 71.8317 62.0813 70.9104 61.7742C70.0062 61.4671 69.1105 61.1003 68.2234 60.6738C67.3533 60.2302 66.577 59.6502 65.8946 58.9336C65.2121 58.2171 64.6577 57.3299 64.2311 56.2721C63.8217 55.2144 63.617 53.9007 63.617 52.3311C63.617 51.0857 63.8558 49.8744 64.3335 48.6972C64.8112 47.5029 65.5107 46.4451 66.432 45.5239C67.3533 44.6026 68.4793 43.869 69.81 43.323C71.1578 42.76 72.6933 42.4785 74.4164 42.4785C76.3613 42.4785 78.1613 42.7941 79.8161 43.4254C81.4881 44.0566 82.9127 44.9438 84.0899 46.0869L82.3753 49.2602Z" fill="white"/>
<path d="M43.4584 71.4218C44.6526 71.4218 45.7104 71.2256 46.6317 70.8332C47.57 70.4408 48.3548 69.8863 48.986 69.1697C49.6344 68.4532 50.1291 67.5831 50.4703 66.5594C50.8115 65.5358 50.9822 64.3927 50.9822 63.1302V42.8621H57.687V63.1302C57.687 65.1775 57.3543 67.0627 56.689 68.7859C56.0407 70.509 55.1023 72.0018 53.874 73.2643C52.6456 74.5098 51.1528 75.4822 49.3955 76.1817C47.6382 76.8812 45.6592 77.2309 43.4584 77.2309C41.2575 77.2309 39.2699 76.8812 37.4956 76.1817C35.7384 75.4822 34.2456 74.5098 33.0172 73.2643C31.7888 72.0018 30.8419 70.509 30.1766 68.7859C29.5283 67.0627 29.2041 65.1775 29.2041 63.1302V42.8621H35.9346V63.1302C35.9346 64.3927 36.1052 65.5358 36.4464 66.5594C36.7876 67.5831 37.2738 68.4532 37.9051 69.1697C38.5534 69.8863 39.3382 70.4408 40.2595 70.8332C41.1978 71.2256 42.2641 71.4218 43.4584 71.4218Z" fill="white"/>
<path d="M21.7896 49.2602C21.619 49.6014 21.4142 49.8488 21.1754 50.0023C20.9536 50.1388 20.6721 50.207 20.3309 50.207C20.0067 50.207 19.657 50.0876 19.2816 49.8488C18.9063 49.6099 18.4627 49.354 17.9509 49.081C17.4561 48.791 16.8761 48.5266 16.2107 48.2877C15.5453 48.0489 14.7776 47.9294 13.9075 47.9294C12.372 47.9294 11.2119 48.3048 10.4271 49.0554C9.65937 49.8061 9.2755 50.7871 9.2755 51.9984C9.2755 52.7662 9.48023 53.4059 9.88969 53.9178C10.3162 54.4125 10.8707 54.8476 11.5531 55.2229C12.2526 55.5812 13.0374 55.9053 13.9075 56.1954C14.7947 56.4854 15.6989 56.801 16.6202 57.1422C17.5414 57.4664 18.4371 57.8588 19.3072 58.3194C20.1944 58.763 20.9792 59.326 21.6616 60.0084C22.3611 60.6909 22.9156 61.5268 23.325 62.5164C23.7516 63.5059 23.9648 64.7087 23.9648 66.1247C23.9648 67.6602 23.7089 69.1018 23.1971 70.4496C22.7023 71.7974 21.9687 72.9746 20.9962 73.9812C20.0238 74.9707 18.8295 75.7555 17.4135 76.3356C16.0145 76.9156 14.4108 77.2057 12.6023 77.2057C11.5787 77.2057 10.5551 77.0948 9.53141 76.873C8.52483 76.6683 7.55237 76.3697 6.61402 75.9773C5.67568 75.5849 4.78852 75.1157 3.95255 74.5698C3.11657 74.0238 2.38296 73.4097 1.75171 72.7272L3.74782 69.5283C3.90136 69.2724 4.10609 69.0677 4.362 68.9142C4.63498 68.7606 4.92501 68.6838 5.2321 68.6838C5.64156 68.6838 6.05955 68.8459 6.48607 69.1701C6.92965 69.4772 7.44147 69.8269 8.02154 70.2193C8.6016 70.5946 9.2755 70.9444 10.0432 71.2685C10.811 71.5756 11.7237 71.7292 12.7815 71.7292C14.317 71.7292 15.5112 71.3368 16.3642 70.552C17.2173 69.7672 17.6438 68.6071 17.6438 67.0716C17.6438 66.2015 17.4305 65.4935 17.004 64.9475C16.5946 64.4016 16.0486 63.9495 15.3662 63.5912C14.6838 63.2159 13.899 62.9002 13.0118 62.6443C12.1417 62.3714 11.246 62.0813 10.3247 61.7742C9.42052 61.4671 8.52483 61.1003 7.63767 60.6738C6.76757 60.2302 5.99131 59.6502 5.30888 58.9336C4.62645 58.2171 4.07197 57.3299 3.64545 56.2721C3.23599 55.2144 3.03127 53.9007 3.03127 52.3311C3.03127 51.0857 3.27012 49.8744 3.74782 48.6972C4.22552 47.5029 4.92501 46.4451 5.84629 45.5239C6.76757 44.6026 7.89358 43.869 9.22432 43.323C10.5721 42.76 12.1076 42.4785 13.8307 42.4785C15.7756 42.4785 17.5756 42.7941 19.2305 43.4254C20.9024 44.0566 22.327 44.9438 23.5042 46.0869L21.7896 49.2602Z" fill="white"/>
<path d="M116.552 31.4242C117.848 31.4242 118.997 31.2112 119.997 30.7851C121.016 30.3591 121.868 29.7571 122.553 28.9791C123.257 28.2012 123.794 27.2565 124.165 26.1451C124.535 25.0337 124.72 23.7927 124.72 22.422V0.416504H132V22.422C132 24.6447 131.639 26.6915 130.916 28.5624C130.213 30.4332 129.194 32.054 127.86 33.4247C126.526 34.7769 124.906 35.8327 122.998 36.5921C121.09 37.3516 118.941 37.7313 116.552 37.7313C114.162 37.7313 112.004 37.3516 110.078 36.5921C108.17 35.8327 106.549 34.7769 105.216 33.4247C103.882 32.054 102.854 30.4332 102.132 28.5624C101.428 26.6915 101.076 24.6447 101.076 22.422V0.416504H108.383V22.422C108.383 23.7927 108.568 25.0337 108.939 26.1451C109.309 27.2565 109.837 28.2012 110.522 28.9791C111.226 29.7571 112.078 30.3591 113.079 30.7851C114.097 31.2112 115.255 31.4242 116.552 31.4242Z" fill="white"/>
<path d="M95.4633 33.7584C93.611 35.1476 91.6382 36.1571 89.5451 36.7869C87.452 37.3981 85.2292 37.7038 82.8768 37.7038C79.8946 37.7038 77.1902 37.2407 74.7637 36.3145C72.3557 35.3699 70.2904 34.064 68.5677 32.3969C66.8451 30.7113 65.5114 28.7201 64.5667 26.4232C63.6406 24.1078 63.1775 21.5794 63.1775 18.838C63.1775 16.0781 63.622 13.5497 64.5112 11.2528C65.4003 8.9374 66.6691 6.94616 68.3177 5.27908C69.9847 3.61201 71.9852 2.31539 74.3191 1.38923C76.6716 0.463078 79.2926 0 82.1822 0C83.6826 0 85.0811 0.1204 86.3777 0.361201C87.6743 0.602001 88.8783 0.935417 89.9897 1.36145C91.1011 1.78748 92.1106 2.29686 93.0182 2.8896C93.9444 3.48234 94.7779 4.13991 95.5188 4.86231L93.435 8.1409C93.1201 8.65955 92.6941 8.98371 92.1569 9.11337C91.6382 9.22451 91.0733 9.09484 90.462 8.72438C89.8878 8.37244 89.3136 8.04829 88.7394 7.75192C88.1652 7.43703 87.5446 7.16844 86.8778 6.94616C86.2295 6.70536 85.5071 6.52013 84.7106 6.39047C83.9141 6.26081 82.9972 6.19598 81.9599 6.19598C80.2187 6.19598 78.6535 6.50161 77.2643 7.11287C75.8751 7.70561 74.6896 8.54841 73.7079 9.64128C72.7262 10.7341 71.9667 12.0678 71.4295 13.6423C70.9109 15.1982 70.6516 16.9301 70.6516 18.838C70.6516 20.9126 70.9387 22.7649 71.5129 24.3949C72.0871 26.025 72.8929 27.4049 73.9302 28.5348C74.986 29.6462 76.2548 30.4983 77.7367 31.091C79.2185 31.6652 80.8671 31.9524 82.6823 31.9524C83.9048 31.9524 84.9977 31.832 85.9609 31.5912C86.9426 31.3318 87.9058 30.9799 88.8505 30.5353V24.0893H84.5995C84.1549 24.0893 83.7937 23.9596 83.5159 23.7003C83.2565 23.441 83.1269 23.1261 83.1269 22.7556V18.6435H95.4633V33.7584Z" fill="white"/>
<path d="M43.0891 31.4242C44.3857 31.4242 45.5341 31.2112 46.5344 30.7851C47.5532 30.3591 48.4052 29.7571 49.0906 28.9791C49.7945 28.2012 50.3316 27.2565 50.7021 26.1451C51.0725 25.0337 51.2578 23.7927 51.2578 22.422V0.416504H58.5374V22.422C58.5374 24.6447 58.1762 26.6915 57.4538 28.5624C56.7499 30.4332 55.7311 32.054 54.3974 33.4247C53.0638 34.7769 51.443 35.8327 49.5351 36.5921C47.6273 37.3516 45.4786 37.7313 43.0891 37.7313C40.6996 37.7313 38.5417 37.3516 36.6153 36.5921C34.7074 35.8327 33.0866 34.7769 31.753 33.4247C30.4193 32.054 29.3913 30.4332 28.6689 28.5624C27.965 26.6915 27.613 24.6447 27.613 22.422V0.416504H34.9204V22.422C34.9204 23.7927 35.1056 25.0337 35.4761 26.1451C35.8466 27.2565 36.3745 28.2012 37.0598 28.9791C37.7637 29.7571 38.6158 30.3591 39.616 30.7851C40.6348 31.2112 41.7925 31.4242 43.0891 31.4242Z" fill="white"/>
<path d="M23.1119 0.416504V6.2235H8.74726V16.6705H20.778V22.4775H8.74726V37.3145H1.41211V0.416504H23.1119Z" fill="white"/>
</svg>
